<svg width="75" height="75" viewBox="0 0 75 75" fill="none" xmlns="http://www.w3.org/2000/svg">
<circle cx="37.5" cy="37.5" r="33.5" fill="white" stroke="#493D9E" stroke-width="8"/>
<path d="M57.374 24.7598C60.0193 24.7598 62.2809 25.2937 64.1582 26.3604C66.0782 27.3844 67.5294 28.8138 68.5107 30.6484C69.5346 32.483 70.0469 34.5952 70.0469 36.9844C70.0468 39.8427 69.2145 42.4237 67.5508 44.7275C65.8868 47.0315 63.1774 48.8453 59.4229 50.168C55.6682 51.4906 50.6547 52.1523 44.3828 52.1523C40.5001 52.1523 37.257 51.981 34.6543 51.6396C32.0945 51.341 30.0041 50.8932 28.3828 50.2959C26.7615 49.6986 25.5024 48.9517 24.6064 48.0557C24.0753 47.4979 23.6098 46.8992 23.2109 46.2588C22.415 47.4568 21.5583 48.3977 20.6387 49.0801C19.3588 50.0186 17.9934 50.6368 16.543 50.9355C15.0923 51.1915 13.5985 51.3203 12.0625 51.3203V51.3184C12.0366 51.3186 12.0105 51.3203 11.9844 51.3203H5.33691C5.1145 49.0904 5 46.8285 5 44.54C5 44.2822 5.002 44.0247 5.00488 43.7676H12.624C12.6499 43.7676 12.6756 43.7683 12.7012 43.7686L12.7021 43.7676C14.1101 43.7676 15.2196 43.5545 16.0303 43.1279C16.8836 42.7013 17.5661 41.997 18.0781 41.0156C18.6327 40.0343 19.1241 38.7335 19.5508 37.1123C20.0201 35.491 20.5531 33.485 21.1504 31.0957L27.9346 32.8242C27.6786 33.8907 27.4438 34.8717 27.2305 35.7676C27.0172 36.6208 26.8467 37.3679 26.7188 38.0078C26.6334 38.6478 26.5908 39.16 26.5908 39.5439C26.5908 40.4398 26.8039 41.2077 27.2305 41.8477C27.6571 42.4877 28.4466 43.0216 29.5986 43.4482C30.0302 43.587 30.5318 43.7127 31.1025 43.8291C32.4609 41.7457 33.9859 39.677 35.6787 37.624C37.7267 35.1921 39.9239 33.0157 42.2705 31.0957C44.6171 29.1758 47.0492 27.6402 49.5664 26.4883C52.1263 25.3364 54.7289 24.7598 57.374 24.7598ZM56.6709 32.3115C54.9216 32.3115 53.1721 32.7603 51.4229 33.6562C49.7162 34.5096 48.052 35.619 46.4307 36.9844C44.8094 38.307 43.3155 39.7573 41.9502 41.3359C40.9688 42.44 40.0867 43.5109 39.3037 44.5488C40.6676 44.5821 42.1686 44.5996 43.8066 44.5996C47.1771 44.5996 50.057 44.451 52.4463 44.1523C54.8356 43.8537 56.7772 43.405 58.2705 42.8076C59.7637 42.2103 60.8515 41.4851 61.5342 40.6318C62.2595 39.7358 62.6221 38.7116 62.6221 37.5596C62.622 36.7064 62.409 35.8958 61.9824 35.1279C61.5984 34.3173 60.9585 33.6555 60.0625 33.1436C59.2093 32.589 58.0786 32.3116 56.6709 32.3115Z" fill="#493D9E"/>
</svg>
