<!DOCTYPE svg PUBLIC "-//W3C//DTD SVG 1.1//EN" "http://www.w3.org/Graphics/SVG/1.1/DTD/svg11.dtd">
<!-- Uploaded to: SVG Repo, www.svgrepo.com, Transformed by: SVG Repo Mixer Tools -->
<svg width="800px" height="800px" viewBox="0 0 512 512" version="1.1" xml:space="preserve" xmlns="http://www.w3.org/2000/svg" xmlns:xlink="http://www.w3.org/1999/xlink" fill="#444" stroke="#444">
<g id="SVGRepo_bgCarrier" stroke-width="0"/>
<g id="SVGRepo_tracerCarrier" stroke-linecap="round" stroke-linejoin="round"/>
<g id="SVGRepo_iconCarrier"> <style type="text/css"> .st0{fill:#444;} .st1{fill:none;stroke:#444;stroke-width:32;stroke-linecap:round;stroke-linejoin:round;stroke-miterlimit:10;} </style> <g id="Layer_1"/> <g id="Layer_2"> <g> <path class="st0" d="M407.02,79.98H104.98c-13.81,0-25,11.19-25,25v302.04c0,13.81,11.19,25,25,25h302.04c13.81,0,25-11.19,25-25 V104.98C432.02,91.17,420.83,79.98,407.02,79.98z M375.64,190.14c0,7.69-6.23,13.92-13.92,13.92h-60 c-7.69,0-13.92,6.23-13.92,13.92v146.81c0,7.69-6.23,13.92-13.92,13.92h-39.58c-7.69,0-13.92-6.23-13.92-13.92V217.98 c0-7.69-6.23-13.92-13.92-13.92h-60c-7.69,0-13.92-6.23-13.92-13.92v-39.57c0-7.69,6.23-13.92,13.92-13.92h215.24 c7.69,0,13.92,6.23,13.92,13.92V190.14z"/> </g> </g> </g>
</svg>